<?xml version="1.0" encoding="utf-8"?>
<!-- Generator: Adobe Illustrator 24.0.0, SVG Export Plug-In . SVG Version: 6.00 Build 0)  -->
<svg version="1.1"
	 id="svg2" xmlns:cc="http://creativecommons.org/ns#" xmlns:dc="http://purl.org/dc/elements/1.1/" xmlns:rdf="http://www.w3.org/1999/02/22-rdf-syntax-ns#" xmlns:svg="http://www.w3.org/2000/svg"
	 xmlns="http://www.w3.org/2000/svg" xmlns:xlink="http://www.w3.org/1999/xlink" x="0px" y="0px" viewBox="0 0 793.7 793.7"
	 style="enable-background:new 0 0 793.7 793.7;" xml:space="preserve">
<style type="text/css">
	.st0{fill:#201F1F;}
	.st1{fill:#FF0000;}
	.st2{clip-path:url(#SVGID_2_);}
	.st3{fill:#FFFFFF;}
</style>
<g id="g10" transform="matrix(1.3333333,0,0,-1.3333333,0,793.70133)">
	<g id="g12" transform="translate(297.8106,556.092)">
		<path id="path14" class="st0" d="M0,0l-258.5-258.5L0-516.9l258.5,258.5L0,0z"/>
	</g>
	<g id="g16" transform="translate(427.1743,426.6989)">
		<path id="path18" class="st1" d="M0,0l-129.4,129.4L-258.7,0l0.2,0.2l43-43h172.4l43,43"/>
	</g>
	<g id="g20">
		<g>
			<defs>
				<rect id="SVGID_1_" x="-99.2" y="-99.2" width="793.7" height="793.7"/>
			</defs>
			<clipPath id="SVGID_2_">
				<use xlink:href="#SVGID_1_"  style="overflow:visible;"/>
			</clipPath>
			<g id="g22" class="st2">
				<g id="g28" transform="translate(231.0479,274.1477)">
					<path id="path30" class="st3" d="M0,0v66.6h25.6V6.1c0-3.7,2-5.5,6.1-5.5h32.3c4,0,6,1.8,6,5.5v60.5h25.6V0c0-6.1-2-11-6-14.6
						c-4-3.6-9.4-5.5-16.1-5.5H22.2c-6.7,0-12.1,1.8-16.2,5.5C2-11,0-6.1,0,0"/>
				</g>
				<g id="g32" transform="translate(366.2915,273.551)">
					<path id="path34" class="st3" d="M0,0h35.6c4,0,6.1,1.8,6.1,5.5v4.9c0,3.7-2,5.5-6.1,5.5H0V0z M0,34.2h32.9
						c4,0,6.1,1.8,6.1,5.5v3.6c0,3.7-2,5.5-6.1,5.5H0V34.2z M-25.6-18.3v85.5h67.9c6.7,0,12.1-1.8,16.2-5.5s6-8.6,6-14.6v-3.1
						c0-2.8-0.5-5.2-1.4-7.4c-0.9-2.1-1.9-3.8-3.2-5c-1.2-1.2-2.4-2.1-3.7-2.9c-1.3-0.7-2.3-1.2-3.2-1.5l-1.4-0.4v-1.3
						c0.4-0.1,1-0.2,1.7-0.3c0.7-0.1,1.9-0.6,3.7-1.3c1.8-0.8,3.4-1.8,4.7-2.9c1.4-1.2,2.6-2.9,3.7-5.2c1.1-2.3,1.7-5,1.7-7.9V1.9
						c0-6.1-2-11-6.1-14.7c-4.1-3.7-9.4-5.5-16.1-5.5H-25.6z"/>
				</g>
				<path id="path36" class="st3" d="M445,340.8h25.6v-85.5H445V340.8z"/>
				<g id="g38" transform="translate(151.0708,301.1609)">
					<path id="path40" class="st3" d="M0,0v18.8h35.6c4.1,0,6.1-1.8,6.1-5.5V5.5c0-3.7-2.1-5.5-6.1-5.5H0z M68.8-33.9L53.3-18.3
						c0.9,0.2,1.9,0.6,3.1,1.1c1.6,0.8,3.3,1.8,4.9,3c1.6,1.2,3.1,3,4.2,5.4c1.2,2.4,1.8,5.1,1.8,8.2v20.1c0,6.1-2,11-6,14.6
						c-4,3.7-9.4,5.5-16.2,5.5h-70.6v-85.5H0v25.2h20.8L46-45.9h23.3v11.6L68.8-33.9z"/>
				</g>
				<g id="g42" transform="translate(297.6377,567.7712)">
					<path id="path44" class="st3" d="M0,0l-5.8-5.8l-258.5-258.5l-5.8-5.8l5.8-5.8L-5.8-534.4l5.8-5.8l5.8,5.8L264.3-276l5.8,5.8
						l-5.8,5.8L5.8-5.8L0,0z M0-11.7l258.5-258.5L0-528.6l-258.5,258.5L0-11.7z"/>
				</g>
			</g>
		</g>
	</g>
</g>
</svg>
